<svg width="41" height="43" viewBox="0 0 41 43" fill="none" xmlns="http://www.w3.org/2000/svg">
<path fill-rule="evenodd" clip-rule="evenodd" d="M40.2133 40.9L37.8772 31.275C39.379 28.3875 40.2133 25.0625 40.2133 21.5625C40.2133 10.1875 31.4529 1 20.6067 1C9.76043 1 1 10.1875 1 21.5625C1 32.9375 9.76043 42.125 20.6067 42.125C23.944 42.125 27.1144 41.25 29.8677 39.675L39.0453 42.125C39.7127 42.3 40.3802 41.6 40.2133 40.9ZM37.7104 21.5625C37.7104 25.0625 36.876 27.6875 35.5411 30.3125C35.3743 30.6625 35.2908 31.1 35.3742 31.5375L37.1263 38.8875L30.2014 37.05C29.7843 36.9625 29.3671 36.9625 29.0334 37.225C27.5316 38.1 24.6949 39.5 20.6901 39.5C11.1788 39.5 3.50298 31.45 3.50298 21.5625C3.50298 11.675 11.1788 3.625 20.6067 3.625C30.0346 3.625 37.7104 11.675 37.7104 21.5625Z" fill="#30235B" stroke="#30235B"/>
</svg>
