<svg width="77" height="71" viewBox="0 0 77 71" fill="none" xmlns="http://www.w3.org/2000/svg">
<path d="M10.1855 32.4254H16.3035C19.7779 32.4254 22.5944 35.0649 22.5944 38.3209V41.2686C22.5944 44.5246 25.4109 47.1642 28.8852 47.1642C32.3595 47.1642 35.176 49.8037 35.176 53.0597V61.741M25.7398 11.6009V16.2127C25.7398 20.2827 29.2604 23.5821 33.6033 23.5821H35.176C38.6504 23.5821 41.4669 26.2216 41.4669 29.4776C41.4669 32.7336 44.2834 35.3731 47.7577 35.3731C51.232 35.3731 54.0485 32.7336 54.0485 29.4776C54.0485 26.2216 56.865 23.5821 60.3394 23.5821L63.6876 23.5821M47.7577 60.3934V53.0597C47.7577 49.8037 50.5742 47.1642 54.0485 47.1642H63.6876M66.6302 35.3731C66.6302 50.0251 53.9559 61.903 38.3214 61.903C22.687 61.903 10.0127 50.0251 10.0127 35.3731C10.0127 20.7211 22.687 8.84326 38.3214 8.84326C53.9559 8.84326 66.6302 20.7211 66.6302 35.3731Z" stroke="#30235B" stroke-width="5" stroke-linecap="round" stroke-linejoin="round"/>
</svg>
