<svg width="64" height="68" viewBox="0 0 64 68" fill="none" xmlns="http://www.w3.org/2000/svg">
<rect x="2" y="2" width="60" height="64.3391" rx="5" fill="white" stroke="#30235B" stroke-width="3"/>
<path fill-rule="evenodd" clip-rule="evenodd" d="M15.807 18.0848C15.6143 18.0848 15.4582 18.2409 15.4582 18.4335V30.292C15.4582 30.4846 15.6143 30.6408 15.807 30.6408H27.6654C27.858 30.6408 28.0142 30.4846 28.0142 30.292V18.4335C28.0142 18.2409 27.858 18.0848 27.6654 18.0848H15.807ZM12.668 18.4335C12.668 16.6999 14.0733 15.2946 15.807 15.2946H27.6654C29.399 15.2946 30.8044 16.6999 30.8044 18.4335V30.292C30.8044 32.0256 29.399 33.431 27.6654 33.431H15.807C14.0733 33.431 12.668 32.0256 12.668 30.292V18.4335Z" fill="#30235B"/>
<path fill-rule="evenodd" clip-rule="evenodd" d="M36.7337 18.0848C36.5411 18.0848 36.3849 18.2409 36.3849 18.4335V30.292C36.3849 30.4846 36.5411 30.6408 36.7337 30.6408H48.5921C48.7848 30.6408 48.9409 30.4846 48.9409 30.292V18.4335C48.9409 18.2409 48.7848 18.0848 48.5921 18.0848H36.7337ZM33.5947 18.4335C33.5947 16.6999 35.0001 15.2946 36.7337 15.2946H48.5921C50.3258 15.2946 51.7311 16.6999 51.7311 18.4335V30.292C51.7311 32.0256 50.3258 33.431 48.5921 33.431H36.7337C35.0001 33.431 33.5947 32.0256 33.5947 30.292V18.4335Z" fill="#30235B"/>
<path fill-rule="evenodd" clip-rule="evenodd" d="M15.807 39.0114C15.6143 39.0114 15.4582 39.1676 15.4582 39.3602V51.2186C15.4582 51.4112 15.6143 51.5674 15.807 51.5674H27.6654C27.858 51.5674 28.0142 51.4112 28.0142 51.2186V39.3602C28.0142 39.1676 27.858 39.0114 27.6654 39.0114H15.807ZM12.668 39.3602C12.668 37.6266 14.0733 36.2212 15.807 36.2212H27.6654C29.399 36.2212 30.8044 37.6266 30.8044 39.3602V51.2186C30.8044 52.9522 29.399 54.3576 27.6654 54.3576H15.807C14.0733 54.3576 12.668 52.9522 12.668 51.2186V39.3602Z" fill="#30235B"/>
<path fill-rule="evenodd" clip-rule="evenodd" d="M36.7337 39.0114C36.5411 39.0114 36.3849 39.1676 36.3849 39.3602V51.2186C36.3849 51.4112 36.5411 51.5674 36.7337 51.5674H48.5921C48.7848 51.5674 48.9409 51.4112 48.9409 51.2186V39.3602C48.9409 39.1676 48.7848 39.0114 48.5921 39.0114H36.7337ZM33.5947 39.3602C33.5947 37.6266 35.0001 36.2212 36.7337 36.2212H48.5921C50.3258 36.2212 51.7311 37.6266 51.7311 39.3602V51.2186C51.7311 52.9522 50.3258 54.3576 48.5921 54.3576H36.7337C35.0001 54.3576 33.5947 52.9522 33.5947 51.2186V39.3602Z" fill="#30235B"/>
</svg>
