<svg width="64" height="68" viewBox="0 0 64 68" fill="none" xmlns="http://www.w3.org/2000/svg">
<rect x="2" y="2" width="60" height="63.5867" rx="5" fill="#30235B" stroke="#30235B" stroke-width="3"/>
<path fill-rule="evenodd" clip-rule="evenodd" d="M16.0208 17.0001C15.8252 17.0001 15.6666 17.1586 15.6666 17.3542V29.3959C15.6666 29.5915 15.8252 29.7501 16.0208 29.7501H28.0624C28.258 29.7501 28.4166 29.5915 28.4166 29.3959V17.3542C28.4166 17.1586 28.258 17.0001 28.0624 17.0001H16.0208ZM12.8333 17.3542C12.8333 15.5938 14.2603 14.1667 16.0208 14.1667H28.0624C29.8228 14.1667 31.2499 15.5938 31.2499 17.3542V29.3959C31.2499 31.1563 29.8228 32.5834 28.0624 32.5834H16.0208C14.2603 32.5834 12.8333 31.1563 12.8333 29.3959V17.3542Z" fill="white"/>
<path fill-rule="evenodd" clip-rule="evenodd" d="M37.2708 17.0001C37.0752 17.0001 36.9166 17.1586 36.9166 17.3542V29.3959C36.9166 29.5915 37.0752 29.7501 37.2708 29.7501H49.3124C49.508 29.7501 49.6666 29.5915 49.6666 29.3959V17.3542C49.6666 17.1586 49.508 17.0001 49.3124 17.0001H37.2708ZM34.0833 17.3542C34.0833 15.5938 35.5103 14.1667 37.2708 14.1667H49.3124C51.0728 14.1667 52.4999 15.5938 52.4999 17.3542V29.3959C52.4999 31.1563 51.0728 32.5834 49.3124 32.5834H37.2708C35.5103 32.5834 34.0833 31.1563 34.0833 29.3959V17.3542Z" fill="white"/>
<path fill-rule="evenodd" clip-rule="evenodd" d="M16.0208 38.2501C15.8252 38.2501 15.6666 38.4086 15.6666 38.6042V50.6459C15.6666 50.8415 15.8252 51.0001 16.0208 51.0001H28.0624C28.258 51.0001 28.4166 50.8415 28.4166 50.6459V38.6042C28.4166 38.4086 28.258 38.2501 28.0624 38.2501H16.0208ZM12.8333 38.6042C12.8333 36.8438 14.2603 35.4167 16.0208 35.4167H28.0624C29.8228 35.4167 31.2499 36.8438 31.2499 38.6042V50.6459C31.2499 52.4063 29.8228 53.8334 28.0624 53.8334H16.0208C14.2603 53.8334 12.8333 52.4063 12.8333 50.6459V38.6042Z" fill="white"/>
<path fill-rule="evenodd" clip-rule="evenodd" d="M37.2708 38.2501C37.0752 38.2501 36.9166 38.4086 36.9166 38.6042V50.6459C36.9166 50.8415 37.0752 51.0001 37.2708 51.0001H49.3124C49.508 51.0001 49.6666 50.8415 49.6666 50.6459V38.6042C49.6666 38.4086 49.508 38.2501 49.3124 38.2501H37.2708ZM34.0833 38.6042C34.0833 36.8438 35.5103 35.4167 37.2708 35.4167H49.3124C51.0728 35.4167 52.4999 36.8438 52.4999 38.6042V50.6459C52.4999 52.4063 51.0728 53.8334 49.3124 53.8334H37.2708C35.5103 53.8334 34.0833 52.4063 34.0833 50.6459V38.6042Z" fill="white"/>
</svg>
