<svg width="44" height="40" viewBox="0 0 44 40" fill="none" xmlns="http://www.w3.org/2000/svg">
<path d="M20.2892 6.50897L21.9529 8.89996L23.5866 6.48845C25.7136 3.34898 28.2233 2 31.617 2C37.0436 2 41.8617 7.0878 41.8617 13.8958C41.8617 19.9373 37.8271 23.7793 32.9137 28.0594C32.4058 28.4476 31.8903 28.9325 31.4662 29.3316C31.298 29.4898 31.1443 29.6345 31.011 29.7543L30.9929 29.7705L30.9752 29.7872L29.1477 31.5122L29.1397 31.5198L29.1318 31.5274C26.8445 33.7343 25.3089 35.2024 24.2338 36.1889C23.1298 37.202 22.6119 37.6118 22.3278 37.7906C22.2299 37.8522 22.1232 37.9021 22.0288 37.9336C21.981 37.9495 21.9483 37.9569 21.9309 37.9602C21.9135 37.9569 21.8807 37.9495 21.8329 37.9336C21.7385 37.9021 21.6318 37.8522 21.534 37.7906C21.2566 37.616 20.6624 37.1259 19.5073 36.0752C18.7071 35.3473 17.7076 34.4164 16.4533 33.2483C15.9697 32.7979 15.4482 32.3122 14.8857 31.7893L14.8787 31.7828L14.8717 31.7764L12.8199 29.9053C12.2234 29.2851 11.5557 28.6864 11.0165 28.2148C6.14087 23.7896 2 19.8633 2 13.8958C2 7.0782 6.81922 2.01914 12.2164 2.09563L12.2306 2.09583H12.2447C15.6461 2.09583 18.1626 3.45276 20.2892 6.50897Z" fill="white" stroke="#FF0000" stroke-width="4"/>
</svg>
