<svg width="44" height="40" viewBox="0 0 44 40" fill="none" xmlns="http://www.w3.org/2000/svg">
<path d="M31.617 0C27.505 0 24.3981 1.725 21.9309 5.36667C19.4636 1.82083 16.3568 0.0958335 12.2447 0.0958335C5.48272 1.35663e-07 0 6.22917 0 13.8958C0 20.8917 4.93445 25.3958 9.68613 29.7083C10.2344 30.1875 10.8741 30.7625 11.4223 31.3375L13.524 33.2542C17.5447 36.9917 19.555 38.9083 20.4688 39.4833C20.9257 39.7708 21.474 39.9625 21.9309 39.9625C22.3878 39.9625 22.936 39.7708 23.3929 39.4833C24.3067 38.9083 25.9515 37.375 30.5205 32.9667L32.348 31.2417C32.9877 30.6667 33.536 30.0917 34.1756 29.6125C39.0187 25.3958 43.8617 20.9875 43.8617 13.8958C43.8617 6.22917 38.379 0 31.617 0Z" fill="#D9231E"/>
</svg>
