<svg width="45" height="59" viewBox="0 0 45 59" fill="none" xmlns="http://www.w3.org/2000/svg">
<rect x="1.88477" y="1.5" width="41.1911" height="55.6183" rx="3.5" stroke="#30235B" stroke-width="3"/>
<path fill-rule="evenodd" clip-rule="evenodd" d="M22.9943 17.9392C23.7037 17.9392 24.2789 18.5048 24.2789 19.2025V28.0458H33.2713C33.9807 28.0458 34.5559 28.6114 34.5559 29.3091C34.5559 30.0069 33.9807 30.5725 33.2713 30.5725H24.2789V39.4158C24.2789 40.1135 23.7037 40.6791 22.9943 40.6791C22.2848 40.6791 21.7096 40.1135 21.7096 39.4158V30.5725H12.7172C12.0078 30.5725 11.4326 30.0069 11.4326 29.3091C11.4326 28.6114 12.0078 28.0458 12.7172 28.0458H21.7096V19.2025C21.7096 18.5048 22.2848 17.9392 22.9943 17.9392Z" fill="#30235B" stroke="#30235B" stroke-width="2" stroke-linecap="round"/>
</svg>
