<svg width="42" height="42" viewBox="0 0 42 42" fill="none" xmlns="http://www.w3.org/2000/svg">
<g clip-path="url(#clip0_77_1728)">
<path d="M41.9055 1.80048C42.001 1.56197 42.0244 1.30067 41.9727 1.049C41.9211 0.797323 41.7967 0.566334 41.6151 0.384667C41.4334 0.203 41.2024 0.0786445 40.9507 0.0270174C40.6991 -0.0246096 40.4378 -0.00123792 40.1993 0.0942351L2.01339 15.3691H2.01076L0.824265 15.8416C0.599539 15.9312 0.403964 16.0813 0.259144 16.2751C0.114323 16.4689 0.0258922 16.699 0.00362032 16.9399C-0.0186516 17.1808 0.0261018 17.4232 0.132937 17.6403C0.239772 17.8573 0.404531 18.0407 0.609015 18.17L1.68526 18.8525L1.68789 18.8577L14.7998 27.2L23.142 40.3119L23.1473 40.3171L23.8298 41.3934C23.9595 41.597 24.1429 41.761 24.3598 41.8672C24.5768 41.9733 24.8188 42.0176 25.0592 41.995C25.2997 41.9725 25.5292 41.8841 25.7227 41.7395C25.9161 41.5949 26.0659 41.3997 26.1555 41.1755L41.9055 1.80048ZM37.0939 6.76173L17.4221 26.4335L16.8578 25.5462C16.7544 25.3834 16.6163 25.2454 16.4535 25.142L15.5663 24.5776L35.238 4.90586L38.3303 3.66948L37.0965 6.76173H37.0939Z" fill="#30235B"/>
</g>
<defs>
<clipPath id="clip0_77_1728">
<rect width="42" height="42" fill="white"/>
</clipPath>
</defs>
</svg>
