<svg width="35" height="42" viewBox="0 0 35 42" fill="none" xmlns="http://www.w3.org/2000/svg">
<path d="M33.1812 41C32.8633 41 32.5455 40.8333 32.3071 40.6667L17.6865 25.1667L3.06595 40.6667C2.74811 41 2.1919 41.1667 1.7946 40.9167C1.31784 40.75 1 40.25 1 39.75V2.25C1 1.58333 1.55622 1 2.1919 1H33.1812C33.8168 1 34.3731 1.58333 34.3731 2.25V39.75C34.3731 40.25 34.0552 40.75 33.6579 40.9167C33.499 41 33.3401 41 33.1812 41ZM17.6865 22.6667C18.3222 22.6667 18.9579 22.9167 19.4346 23.4167L31.9893 36.75V3.5H3.38379V36.75L15.9384 23.4167C16.4152 22.9167 17.0509 22.6667 17.6865 22.6667Z" fill="#30235B" stroke="#30235B"/>
</svg>
